<svg width="20" height="20" viewBox="0 0 20 20" fill="none" xmlns="http://www.w3.org/2000/svg">
<g clip-path="url(#clip0_2012_138)">
<path d="M14.56 11.985C14.3125 11.8609 13.095 11.2625 12.8683 11.1792C12.6408 11.0967 12.4758 11.0559 12.31 11.3042C12.1458 11.5517 11.6708 12.1092 11.5267 12.2742C11.3825 12.44 11.2375 12.46 10.99 12.3367C10.7425 12.2117 9.94415 11.9509 8.99832 11.1075C8.26249 10.4509 7.76499 9.64003 7.62082 9.3917C7.47665 9.1442 7.60582 9.01003 7.72915 8.8867C7.84082 8.77586 7.97749 8.59753 8.10082 8.45336C8.22499 8.30836 8.26582 8.20503 8.34915 8.0392C8.43165 7.8742 8.39082 7.73003 8.32832 7.60586C8.26582 7.4817 7.77082 6.26253 7.56499 5.7667C7.36332 5.2842 7.15915 5.35003 7.00749 5.3417C6.86332 5.33503 6.69832 5.33503 6.53249 5.33503C6.36749 5.33503 6.09915 5.3967 5.87249 5.64503C5.64582 5.89253 5.00582 6.4917 5.00582 7.71086C5.00582 8.9292 5.89332 10.1067 6.01665 10.2725C6.14082 10.4375 7.76332 12.9392 10.2475 14.0117C10.8383 14.2667 11.2992 14.4192 11.6592 14.5325C12.2525 14.7217 12.7925 14.695 13.2183 14.6309C13.6942 14.56 14.6833 14.0317 14.89 13.4534C15.0967 12.875 15.0967 12.3792 15.0342 12.2759C14.9725 12.1725 14.8075 12.1109 14.5592 11.9867L14.56 11.985ZM10.0417 18.1559H10.0383C8.56313 18.156 7.11505 17.7594 5.84582 17.0075L5.54499 16.8292L2.42749 17.6475L3.25915 14.6075L3.06332 14.2959C2.23868 12.9828 1.80244 11.4631 1.80499 9.91253C1.80582 5.37086 5.50165 1.67586 10.045 1.67586C12.245 1.67586 14.3133 2.5342 15.8683 4.09086C17.418 5.63373 18.2861 7.73242 18.2792 9.9192C18.2767 14.4609 14.5817 18.1559 10.0417 18.1559ZM17.0525 2.90836C15.1981 1.04091 12.6734 -0.0064596 10.0417 2.99787e-05C4.57915 2.99787e-05 0.133319 4.44586 0.130819 9.91003C0.130819 11.6567 0.586652 13.3617 1.45415 14.8642L0.0474854 20L5.30165 18.6217C6.75465 19.4133 8.38285 19.8282 10.0375 19.8284H10.0417C15.5033 19.8284 19.95 15.3825 19.9525 9.91753C19.9606 7.28713 18.9164 4.76273 17.0525 2.9067V2.90836Z" fill="#25D366"/>
</g>
<defs>
<clipPath id="clip0_2012_138">
<rect width="20" height="20" fill="white"/>
</clipPath>
</defs>
</svg>
